<?xml version="1.0" encoding="us-ascii" standalone="no"?><svg xmlns="http://www.w3.org/2000/svg" xmlns:xlink="http://www.w3.org/1999/xlink" contentStyleType="text/css" height="332px" preserveAspectRatio="none" style="width:450px;height:332px;background:#FFFFFF;" version="1.1" viewBox="0 0 450 332" width="450px" zoomAndPan="magnify"><defs/><g><!--entity BDS--><g id="elem_BDS"><ellipse cx="84.5" cy="175" fill="#F1F1F1" rx="8" ry="8" style="stroke:#181818;stroke-width:0.5;"/><text fill="#000000" font-family="sans-serif" font-size="14" lengthAdjust="spacing" textLength="89" x="40" y="204.9951">book details</text><text fill="#000000" font-family="sans-serif" font-size="14" lengthAdjust="spacing" textLength="51" x="44" y="221.292">service</text></g><!--entity BRS--><g id="elem_BRS"><ellipse cx="238.5" cy="175" fill="#F1F1F1" rx="8" ry="8" style="stroke:#181818;stroke-width:0.5;"/><text fill="#000000" font-family="sans-serif" font-size="14" lengthAdjust="spacing" textLength="95" x="191" y="204.9951">book reviews</text><text fill="#000000" font-family="sans-serif" font-size="14" lengthAdjust="spacing" textLength="51" x="195" y="221.292">service</text></g><!--entity BLS--><g id="elem_BLS"><ellipse cx="379.5" cy="175" fill="#F1F1F1" rx="8" ry="8" style="stroke:#181818;stroke-width:0.5;"/><text fill="#000000" font-family="sans-serif" font-size="14" lengthAdjust="spacing" textLength="63" x="348" y="204.9951">book list</text><text fill="#000000" font-family="sans-serif" font-size="14" lengthAdjust="spacing" textLength="51" x="352" y="221.292">service</text></g><!--entity BSC--><g id="elem_BSC"><rect fill="#F1F1F1" height="62.5938" rx="2.5" ry="2.5" style="stroke:#181818;stroke-width:0.5;" width="123" x="177" y="7"/><rect fill="#F1F1F1" height="10" style="stroke:#181818;stroke-width:0.5;" width="15" x="280" y="12"/><rect fill="#F1F1F1" height="2" style="stroke:#181818;stroke-width:0.5;" width="4" x="278" y="14"/><rect fill="#F1F1F1" height="2" style="stroke:#181818;stroke-width:0.5;" width="4" x="278" y="18"/><text fill="#000000" font-family="sans-serif" font-size="14" lengthAdjust="spacing" textLength="79" x="192" y="39.9951">book store</text><text fill="#000000" font-family="sans-serif" font-size="14" lengthAdjust="spacing" textLength="29" x="224" y="56.292">&#171;UI&#187;</text></g><!--entity BDC--><g id="elem_BDC"><rect fill="#F1F1F1" height="46.2969" rx="2.5" ry="2.5" style="stroke:#181818;stroke-width:0.5;" width="129" x="7" y="280"/><rect fill="#F1F1F1" height="10" style="stroke:#181818;stroke-width:0.5;" width="15" x="116" y="285"/><rect fill="#F1F1F1" height="2" style="stroke:#181818;stroke-width:0.5;" width="4" x="114" y="287"/><rect fill="#F1F1F1" height="2" style="stroke:#181818;stroke-width:0.5;" width="4" x="114" y="291"/><text fill="#000000" font-family="sans-serif" font-size="14" lengthAdjust="spacing" textLength="89" x="22" y="312.9951">book details</text></g><!--entity BLC--><g id="elem_BLC"><rect fill="#F1F1F1" height="46.2969" rx="2.5" ry="2.5" style="stroke:#181818;stroke-width:0.5;" width="103" x="341" y="280"/><rect fill="#F1F1F1" height="10" style="stroke:#181818;stroke-width:0.5;" width="15" x="424" y="285"/><rect fill="#F1F1F1" height="2" style="stroke:#181818;stroke-width:0.5;" width="4" x="422" y="287"/><rect fill="#F1F1F1" height="2" style="stroke:#181818;stroke-width:0.5;" width="4" x="422" y="291"/><text fill="#000000" font-family="sans-serif" font-size="14" lengthAdjust="spacing" textLength="63" x="356" y="312.9951">book list</text></g><!--entity BRC--><g id="elem_BRC"><rect fill="#F1F1F1" height="46.2969" rx="2.5" ry="2.5" style="stroke:#181818;stroke-width:0.5;" width="135" x="171" y="280"/><rect fill="#F1F1F1" height="10" style="stroke:#181818;stroke-width:0.5;" width="15" x="286" y="285"/><rect fill="#F1F1F1" height="2" style="stroke:#181818;stroke-width:0.5;" width="4" x="284" y="287"/><rect fill="#F1F1F1" height="2" style="stroke:#181818;stroke-width:0.5;" width="4" x="284" y="291"/><text fill="#000000" font-family="sans-serif" font-size="14" lengthAdjust="spacing" textLength="95" x="186" y="312.9951">book reviews</text></g><!--link BDS to BDC--><g id="link_BDS_BDC"><path d="M83.647,184.267 C81.67,203.429 76.7196,251.4099 73.7849,279.8541 " fill="none" id="BDS-BDC" style="stroke:#181818;stroke-width:1.0;"/></g><!--link BRS to BRC--><g id="link_BRS_BRC"><path d="M238.5,184.267 C238.5,203.429 238.5,251.4099 238.5,279.8541 " fill="none" id="BRS-BRC" style="stroke:#181818;stroke-width:1.0;"/></g><!--link BLS to BLC--><g id="link_BLS_BLC"><path d="M380.353,184.267 C382.33,203.429 387.28,251.4099 390.215,279.8541 " fill="none" id="BLS-BLC" style="stroke:#181818;stroke-width:1.0;"/></g><!--link BSC to BDS--><g id="link_BSC_BDS"><path d="M203.555,70.02 C171.643,97.891 125.829,137.904 101.3826,159.255 " fill="none" id="BSC-to-BDS" style="stroke:#181818;stroke-width:1.0;"/><path d="M101.5665,170.3228 A9,9 0 0 0 90.4396 157.5834" fill="none" style="stroke:#181818;stroke-width:1.5;"/></g><!--link BSC to BRS--><g id="link_BSC_BRS"><path d="M238.5,70.02 C238.5,96.431 238.5,133.744 238.5,155.749 " fill="none" id="BSC-to-BRS" style="stroke:#181818;stroke-width:1.0;"/><path d="M246.9572,162.8998 A9,9 0 0 0 230.0428 162.8998" fill="none" style="stroke:#181818;stroke-width:1.5;"/></g><!--link BSC to BLS--><g id="link_BSC_BLS"><path d="M270.495,70.02 C299.586,97.77 341.294,137.555 363.748,158.974 " fill="none" id="BSC-to-BLS" style="stroke:#181818;stroke-width:1.0;"/><path d="M374.7007,157.7336 A9,9 0 0 0 363.0264 169.9733" fill="none" style="stroke:#181818;stroke-width:1.5;"/></g></g></svg>